<svg width="13" height="14" viewBox="0 0 13 14" fill="none" xmlns="http://www.w3.org/2000/svg">
<path d="M1.91023 1.79802C2.22099 0.753869 3.18824 -0.00753784 4.33333 -0.00753784C5.47842 -0.00753784 6.44568 0.753869 6.75643 1.79802H13V3.24246H6.75643C6.44568 4.28661 5.47842 5.04802 4.33333 5.04802C3.18824 5.04802 2.22099 4.28661 1.91023 3.24246H0V1.79802H1.91023Z" fill="white" fill-opacity="0.5"/>
<path d="M12.1731 7.5758H13V6.13135H12.1731C11.8623 5.0872 10.8951 4.3258 9.75 4.3258C8.60491 4.3258 7.63765 5.0872 7.3269 6.13135H0V7.5758H7.3269C7.63765 8.61994 8.60491 9.38135 9.75 9.38135C10.8951 9.38135 11.8623 8.61994 12.1731 7.5758Z" fill="white" fill-opacity="0.5"/>
<path d="M2.99357 11.9091H0V10.4647H2.99357C3.30432 9.42054 4.27158 8.65913 5.41667 8.65913C6.56176 8.65913 7.52901 9.42054 7.83977 10.4647H13V11.9091H7.83977C7.52901 12.9533 6.56176 13.7147 5.41667 13.7147C4.27158 13.7147 3.30432 12.9533 2.99357 11.9091Z" fill="white" fill-opacity="0.5"/>
</svg>
