<svg width="14" height="16" viewBox="0 0 14 16" fill="none" xmlns="http://www.w3.org/2000/svg">
<path d="M7.34728 0.524238C7.3796 0.491921 7.432 0.491921 7.46431 0.524238L13.4747 6.53459C13.4927 6.5526 13.4973 6.56664 13.4991 6.5767C13.5013 6.58949 13.5001 6.6066 13.4926 6.62478C13.4851 6.64295 13.4738 6.65586 13.4632 6.66333C13.4548 6.66921 13.4416 6.67586 13.4162 6.67586H1.39544C1.36998 6.67586 1.35677 6.66921 1.34842 6.66333C1.33781 6.65586 1.32652 6.64295 1.31899 6.62478C1.31146 6.6066 1.31032 6.58949 1.31254 6.5767C1.31428 6.56664 1.31892 6.5526 1.33693 6.53459L7.34728 0.524238ZM7.46431 15.4758C7.432 15.5081 7.3796 15.5081 7.34728 15.4758L1.33693 9.46541C1.31892 9.4474 1.31428 9.43336 1.31254 9.4233C1.31032 9.41051 1.31146 9.3934 1.31899 9.37522C1.32652 9.35705 1.33781 9.34414 1.34842 9.33667C1.35677 9.33079 1.36998 9.32414 1.39545 9.32414H13.4162C13.4416 9.32414 13.4548 9.33079 13.4632 9.33667C13.4738 9.34414 13.4851 9.35705 13.4926 9.37522C13.5001 9.3934 13.5013 9.41051 13.4991 9.4233C13.4973 9.43335 13.4927 9.4474 13.4747 9.46541L7.46431 15.4758Z" stroke="white" stroke-opacity="0.5"/>
</svg>
