<svg width="22" height="35" viewBox="0 0 22 35" fill="none" xmlns="http://www.w3.org/2000/svg">
<path d="M2.15234 34.75H0.602344L0.152344 23.95H1.70234C2.30234 26.25 3.00234 28.0167 3.80234 29.25C4.60234 30.45 5.58568 31.2833 6.75234 31.75C7.95234 32.1833 9.40234 32.4 11.1023 32.4C12.369 32.4 13.4523 32.2333 14.3523 31.9C15.2523 31.5333 15.9523 30.9667 16.4523 30.2C16.9523 29.4 17.2023 28.3667 17.2023 27.1C17.2023 25.6333 16.7857 24.4167 15.9523 23.45C15.1523 22.4833 14.119 21.6333 12.8523 20.9C11.5857 20.1333 10.269 19.3667 8.90234 18.6C7.56901 17.8333 6.28568 17.0167 5.05234 16.15C3.81901 15.2833 2.80234 14.25 2.00234 13.05C1.23568 11.85 0.852344 10.3833 0.852344 8.64999C0.852344 6.88332 1.28568 5.41666 2.15234 4.24999C3.01901 3.04999 4.16901 2.13332 5.60234 1.49999C7.03568 0.866654 8.61901 0.549988 10.3523 0.549988C11.8857 0.549988 13.069 0.683321 13.9023 0.949989C14.7357 1.18332 15.3857 1.43332 15.8523 1.69999C16.3523 1.96666 16.8023 2.09999 17.2023 2.09999C17.6023 2.09999 17.919 1.99999 18.1523 1.79999C18.419 1.56665 18.619 1.18332 18.7523 0.649987H20.0523L20.4023 10.65H18.9023C18.2023 7.88332 17.269 5.83332 16.1023 4.49999C14.9357 3.16665 13.0857 2.51665 10.5523 2.54999C8.85234 2.54999 7.53568 2.94999 6.60234 3.74999C5.66901 4.51666 5.20234 5.68332 5.20234 7.24999C5.20234 8.48332 5.55234 9.54999 6.25234 10.45C6.95234 11.3167 7.86901 12.1 9.00234 12.8C10.1357 13.5 11.319 14.2167 12.5523 14.95C13.6523 15.5833 14.7523 16.2167 15.8523 16.85C16.9857 17.4833 18.0023 18.2 18.9023 19C19.8357 19.8 20.569 20.7333 21.1023 21.8C21.669 22.8667 21.9523 24.15 21.9523 25.65C21.9523 27.5833 21.5023 29.2167 20.6023 30.55C19.7357 31.8833 18.5357 32.9 17.0023 33.6C15.469 34.2667 13.7357 34.6 11.8023 34.6C10.069 34.6 8.65234 34.4667 7.55234 34.2C6.48568 33.9667 5.63568 33.7333 5.00234 33.5C4.40234 33.2333 3.90234 33.1 3.50234 33.1C3.16901 33.1 2.86901 33.25 2.60234 33.55C2.33568 33.85 2.18568 34.25 2.15234 34.75Z" fill="#1A1A1A"/>
</svg>
