<svg width="112" height="94" viewBox="0 0 112 94" fill="none" xmlns="http://www.w3.org/2000/svg">
<path d="M112 5.01333L89.1122 92.2453L58.0949 94L29.9542 5.89067L60.8465 4.63733L71.6025 54.52L83.2339 3.13333L112 5.01333Z" fill="#DBD9DB"/>
<path d="M65.5366 59.5333C65.5366 65.2569 64.536 70.2702 62.5349 74.5733C60.5755 78.8347 57.8656 82.3858 54.4054 85.2267C50.9868 88.0676 46.9637 90.1982 42.3361 91.6187C37.7502 93.0391 32.81 93.7493 27.5154 93.7493C25.4725 93.7493 23.2213 93.4778 20.7616 92.9347C18.3436 92.3916 15.8839 91.7231 13.3825 90.9293C10.8811 90.0938 8.46306 89.2164 6.12842 88.2973C3.83547 87.3364 1.79267 86.4382 0 85.6027L2.75154 59.784C6.29518 61.9147 10.214 63.544 14.5081 64.672C18.8438 65.7582 23.0962 66.3013 27.2652 66.3013C28.0573 66.3013 29.0162 66.2804 30.1418 66.2387C31.2674 66.1551 32.3305 65.9671 33.3311 65.6747C34.3734 65.3404 35.2488 64.86 35.9576 64.2333C36.6663 63.6067 37.0207 62.7084 37.0207 61.5387C37.0207 60.7449 36.7705 60.0764 36.2702 59.5333C35.77 58.9484 35.1238 58.4889 34.3317 58.1547C33.5396 57.7787 32.6432 57.5071 31.6427 57.34C30.6421 57.1311 29.6624 56.9849 28.7035 56.9013C27.7447 56.8178 26.8483 56.776 26.0145 56.776C25.1807 56.776 24.5137 56.776 24.0134 56.776C20.4281 56.776 17.1554 56.1493 14.1954 54.896C11.2771 53.6427 8.75489 51.9089 6.6287 49.6947C4.5442 47.4387 2.9183 44.7858 1.75098 41.736C0.583659 38.6444 0 35.3022 0 31.7093C0 26.7796 0.979713 22.372 2.93914 18.4867C4.94026 14.5596 7.58757 11.2382 10.8811 8.52267C14.2163 5.76533 18.0309 3.65556 22.325 2.19333C26.619 0.731111 31.059 0 35.6449 0C37.6877 0 39.793 0.0835556 41.9609 0.250667C44.1288 0.376 46.2758 0.626667 48.402 1.00267C50.5699 1.37867 52.6752 1.85911 54.718 2.444C56.7608 3.02889 59.0121 3.76 60.8465 4.63733L66.7734 32.1246C63.9385 31.1637 52.3417 28.3253 49.215 27.6987C46.1299 27.0302 43.1074 26.696 40.1474 26.696C39.6054 26.696 38.8967 26.7169 38.0212 26.7587C37.1874 26.7587 36.2911 26.8213 35.3322 26.9467C34.415 27.0302 33.477 27.1764 32.5181 27.3853C31.5593 27.5942 30.7046 27.8867 29.9542 28.2627C29.2038 28.5969 28.5993 29.0564 28.1407 29.6413C27.6821 30.2262 27.4737 30.9156 27.5154 31.7093C27.557 32.6284 27.8906 33.3804 28.5159 33.9653C29.183 34.5084 30.0168 34.9471 31.0173 35.2813C32.0596 35.5738 33.1852 35.7827 34.3942 35.908C35.6449 36.0333 36.8747 36.1169 38.0838 36.1587C39.2928 36.1587 40.4184 36.1587 41.4606 36.1587C42.5029 36.1169 43.3575 36.1378 44.0246 36.2213C47.3598 36.4302 50.3614 37.1404 53.0296 38.352C55.6978 39.5636 57.949 41.172 59.7834 43.1773C61.6594 45.1827 63.0769 47.5849 64.0357 50.384C65.0363 53.1413 65.5366 56.1911 65.5366 59.5333Z" fill="#372554"/>
</svg>
