<svg width="40" height="40" viewBox="0 0 40 40" fill="none" xmlns="http://www.w3.org/2000/svg">
<path fill-rule="evenodd" clip-rule="evenodd" d="M3.75 20C3.75 15.6902 5.46205 11.557 8.50953 8.50953C11.557 5.46205 15.6902 3.75 20 3.75C24.3098 3.75 28.443 5.46205 31.4905 8.50953C34.538 11.557 36.25 15.6902 36.25 20C36.25 24.3098 34.538 28.443 31.4905 31.4905C28.443 34.538 24.3098 36.25 20 36.25C15.6902 36.25 11.557 34.538 8.50953 31.4905C5.46205 28.443 3.75 24.3098 3.75 20ZM20 0C14.6957 0 9.6086 2.10714 5.85787 5.85787C2.10714 9.6086 0 14.6957 0 20C0 25.3043 2.10714 30.3915 5.85787 34.1423C9.6086 37.8927 14.6957 40 20 40C25.3043 40 30.3915 37.8927 34.1423 34.1423C37.8927 30.3915 40 25.3043 40 20C40 14.6957 37.8927 9.6086 34.1423 5.85787C30.3915 2.10714 25.3043 0 20 0ZM12.5 20C13.163 20 13.7989 19.7366 14.2678 19.2678C14.7366 18.7989 15 18.163 15 17.5C15 16.837 14.7366 16.2011 14.2678 15.7322C13.7989 15.2634 13.163 15 12.5 15C11.837 15 11.2011 15.2634 10.7322 15.7322C10.2634 16.2011 10 16.837 10 17.5C10 18.163 10.2634 18.7989 10.7322 19.2678C11.2011 19.7366 11.837 20 12.5 20ZM30 17.5C30 18.163 29.7365 18.7989 29.2677 19.2678C28.799 19.7366 28.163 20 27.5 20C26.837 20 26.201 19.7366 25.7323 19.2678C25.2635 18.7989 25 18.163 25 17.5C25 16.837 25.2635 16.2011 25.7323 15.7322C26.201 15.2634 26.837 15 27.5 15C28.163 15 28.799 15.2634 29.2677 15.7322C29.7365 16.2011 30 16.837 30 17.5ZM13.3 24.09C13.7034 23.8076 14.2016 23.6952 14.6871 23.777C15.1727 23.8589 15.6065 24.1285 15.895 24.5275L15.9125 24.55C16.1696 24.8449 16.4637 25.1052 16.7875 25.325C17.4475 25.77 18.495 26.25 20 26.25C21.505 26.25 22.55 25.77 23.2125 25.3225C23.5363 25.1027 23.8304 24.8424 24.0875 24.5475L24.105 24.5275C24.3934 24.1224 24.831 23.8484 25.3213 23.7659C25.8118 23.6834 26.315 23.7991 26.72 24.0875C27.125 24.3759 27.399 24.8135 27.4815 25.3037C27.564 25.7943 27.4485 26.2975 27.16 26.7025L25.625 25.625C27.16 26.7 27.16 26.7025 27.1575 26.7025V26.705L27.155 26.71L27.15 26.7175L27.1375 26.735L27.1025 26.7825C26.962 26.9708 26.8082 27.1485 26.6425 27.315C26.2407 27.731 25.7967 28.1038 25.3175 28.4275C23.743 29.4735 21.8902 30.0215 20 30C17.635 30 15.87 29.23 14.685 28.425C14.058 28.0007 13.4919 27.4928 13.0025 26.915C12.9668 26.8715 12.9317 26.8273 12.8975 26.7825L12.8625 26.7325L12.85 26.7175L12.845 26.71V26.705H12.8425L14.375 25.625L12.84 26.7C12.5549 26.293 12.4429 25.7897 12.5287 25.3003C12.6145 24.811 12.891 24.3757 13.2975 24.09H13.3Z" fill="white"/>
</svg>
