<svg width="31" height="40" viewBox="0 0 31 40" fill="none" xmlns="http://www.w3.org/2000/svg">
<path fill-rule="evenodd" clip-rule="evenodd" d="M3.73463e-06 6.3492C3.73463e-06 4.66529 0.66893 3.05033 1.85963 1.85964C3.05036 0.668931 4.66529 0 6.3492 0H28.5714C29.0765 0 29.5611 0.200679 29.9182 0.557891C30.2755 0.915102 30.4762 1.39959 30.4762 1.90476V33.6507C30.4762 34.1559 30.2755 34.6405 29.9182 34.9975C29.5611 35.3549 29.0765 35.5555 28.5714 35.5555H22.2222C21.7171 35.5555 21.2325 35.3549 20.8754 34.9975C20.5181 34.6405 20.3174 34.1559 20.3174 33.6507C20.3174 33.1456 20.5181 32.661 20.8754 32.304C21.2325 31.9466 21.7171 31.746 22.2222 31.746H26.6666V26.6666H6.3492C5.84909 26.6666 5.36015 26.8144 4.94367 27.0913C4.52716 27.3681 4.2017 27.7617 4.00802 28.2229C3.81437 28.6839 3.76117 29.1918 3.85506 29.6833C3.94895 30.1744 4.1858 30.627 4.53587 30.9841C4.8895 31.3452 5.0852 31.8318 5.07997 32.3372C5.07474 32.8426 4.86898 33.3252 4.50793 33.6787C4.14692 34.0322 3.66019 34.228 3.15484 34.2227C2.64952 34.2176 2.16696 34.0119 1.81333 33.6507C0.649425 32.4645 -0.00179944 30.8683 3.73463e-06 29.2063V6.3492ZM26.6666 3.80952V22.8571H6.3492C5.44508 22.8571 4.58666 23.045 3.80952 23.3854V6.3492C3.80952 5.67562 4.0771 5.02966 4.55337 4.55337C5.02966 4.0771 5.67563 3.80952 6.3492 3.80952H26.6666ZM7.61904 31.1111V39.365C7.61904 39.4829 7.65188 39.5984 7.71387 39.6987C7.77587 39.7991 7.86455 39.8801 7.97002 39.9329C8.07547 39.9857 8.19354 40.0081 8.31098 39.9974C8.42841 39.9867 8.54059 39.9438 8.63491 39.873L12.3174 37.1123C12.4274 37.0298 12.561 36.9853 12.6984 36.9853C12.8358 36.9853 12.9695 37.0298 13.0794 37.1123L16.7619 39.873C16.8562 39.9438 16.9684 39.9867 17.0858 39.9974C17.2033 40.0081 17.3213 39.9857 17.4268 39.9329C17.5322 39.8801 17.621 39.7991 17.6829 39.6987C17.7449 39.5984 17.7778 39.4829 17.7778 39.365V31.1111C17.7778 30.9427 17.7109 30.7812 17.5918 30.6621C17.4727 30.5429 17.3112 30.4761 17.1428 30.4761H8.25396C8.08558 30.4761 7.92408 30.5429 7.805 30.6621C7.68594 30.7812 7.61904 30.9427 7.61904 31.1111Z" fill="#858C95"/>
</svg>
