<svg width="40" height="34" viewBox="0 0 40 34" fill="none" xmlns="http://www.w3.org/2000/svg">
<path fill-rule="evenodd" clip-rule="evenodd" d="M0 2.00003C0 0.964506 0.839465 0.125031 1.875 0.125031H12.5072C15.5753 0.125031 18.2995 1.59898 20.0098 3.87768C21.7201 1.59908 24.4442 0.125031 27.5125 0.125031H38.125C39.1605 0.125031 40 0.964506 40 2.00003V28.25C40 29.2855 39.1605 30.125 38.125 30.125H26.8565C25.3648 30.125 23.934 30.7178 22.8791 31.7725L21.3258 33.3258C20.5936 34.058 19.4064 34.058 18.6742 33.3258L17.1209 31.7725C16.066 30.7178 14.6353 30.125 13.1434 30.125H1.875C0.839465 30.125 0 29.2855 0 28.25V2.00003ZM21.8875 9.50003C21.8875 6.39343 24.4059 3.87503 27.5125 3.87503H36.25V26.375H26.8565C25.0815 26.375 23.3585 26.8785 21.8781 27.806L21.8875 9.50003ZM18.1281 27.81L18.1375 15.1268L18.1321 9.49468C18.1292 6.39016 15.6117 3.87503 12.5072 3.87503H3.75V26.375H13.1434C14.9209 26.375 16.6463 26.8798 18.1281 27.81Z" fill="#858C95"/>
</svg>
