<svg width="41" height="40" viewBox="0 0 41 40" fill="none" xmlns="http://www.w3.org/2000/svg">
<path fill-rule="evenodd" clip-rule="evenodd" d="M0.476135 4.375C0.476135 1.95875 2.43489 0 4.85113 0H36.1011C38.5174 0 40.4761 1.95876 40.4761 4.375C40.4761 14.7813 40.4761 25.1052 40.4761 35.625C40.4761 38.0412 38.5174 40 36.1011 40C25.4739 40 15.3567 40 4.85113 40C2.43489 40 0.476135 38.0412 0.476135 35.625V4.375ZM4.22614 16.25V35.625C4.22614 35.9702 4.50596 36.25 4.85113 36.25H12.9762L12.9761 16.25H4.22614ZM12.9761 12.5H4.22614V4.375C4.22614 4.02982 4.50596 3.75 4.85113 3.75H12.9761L12.9761 12.5ZM16.7261 16.25L16.7262 36.25H36.1011C36.4463 36.25 36.7261 35.9702 36.7261 35.625V16.25H16.7261ZM36.7261 12.5H16.7261L16.7261 3.75H36.1011C36.4463 3.75 36.7261 4.02982 36.7261 4.375V12.5Z" fill="#858C95"/>
</svg>
