<svg width="41" height="40" viewBox="0 0 41 40" fill="none" xmlns="http://www.w3.org/2000/svg">
<path fill-rule="evenodd" clip-rule="evenodd" d="M4.33314 18.125H11.1661C11.5267 12.9397 13.33 8.73445 15.1183 5.75395C15.4139 5.2614 15.7096 4.80125 15.9991 4.37455C9.78246 6.15242 5.08969 11.54 4.33314 18.125ZM11.1661 21.875H4.33314C5.08969 28.46 9.78259 33.8478 15.9994 35.6255C15.7097 35.1988 15.4139 34.7385 15.1183 34.2458C13.3301 31.2653 11.5267 27.0603 11.1661 21.875ZM14.9268 21.875H26.0254C25.6741 26.2137 24.1535 29.7578 22.6183 32.3165C21.8527 33.5925 21.0886 34.6143 20.4761 35.3555C19.8637 34.6143 19.0996 33.5925 18.3339 32.3165C16.7988 29.7578 15.2781 26.2137 14.9268 21.875ZM26.0256 18.125H14.9268C15.2781 13.7861 16.7988 10.2419 18.3339 7.6833C19.0996 6.40727 19.8637 5.38537 20.4761 4.64425C21.0886 5.38537 21.8527 6.40727 22.6183 7.6833C24.1535 10.2419 25.6741 13.7861 26.0256 18.125ZM29.7861 21.875C29.4256 27.0603 27.6221 31.2653 25.8339 34.2458C25.5384 34.7385 25.2425 35.1988 24.9529 35.6255C31.1696 33.8478 35.8626 28.46 36.6191 21.875H29.7861ZM36.6191 18.125H29.7861C29.4256 12.9397 27.6221 8.73445 25.8339 5.75395C25.5384 5.2614 25.2427 4.80125 24.9531 4.37452C31.1699 6.1524 35.8626 11.54 36.6191 18.125ZM20.4761 0C9.43043 0 0.476135 8.9543 0.476135 20C0.476135 31.0458 9.43043 40 20.4761 40C31.5219 40 40.4761 31.0458 40.4761 20C40.4761 8.9543 31.5219 0 20.4761 0Z" fill="#858C95"/>
</svg>
